<?xml version="1.0" encoding="UTF-8" standalone="no"?> <svg xmlns="http://www.w3.org/2000/svg" xmlns:xlink="http://www.w3.org/1999/xlink" viewBox="0 0 64 64"><defs><style>.cls-1{fill:url(#linear-gradient);}</style><linearGradient id="linear-gradient" x1="12.33" y1="32" x2="51.67" y2="32" gradientUnits="userSpaceOnUse"><stop offset="0" stop-color="#17a6d7"/><stop offset="1" stop-color="#9d31fe"/></linearGradient></defs><g id="Layer_50" data-name="Layer 50"><path class="cls-1" d="M49.35,47.6A30.15,30.15,0,0,0,36.15,32c9.43-5.21,15.52-16.19,15.52-28a2,2,0,0,0-4,0c0,11.43-6.2,21.34-15.67,25.72a26.41,26.41,0,0,1-12.53-12.3H40.13a2,2,0,0,0,0-4H17.82A30.46,30.46,0,0,1,16.4,6H40.13a2,2,0,0,0,0-4H14.33a2,2,0,0,0-2,2,34.49,34.49,0,0,0,2.09,11.76,2,2,0,0,0,.23.64A30.15,30.15,0,0,0,27.85,32c-9.43,5.21-15.52,16.19-15.52,28a2,2,0,1,0,4,0c0-11.43,6.2-21.34,15.67-25.72a26.41,26.41,0,0,1,12.53,12.3H23.87a2,2,0,0,0,0,4H46.18A30.46,30.46,0,0,1,47.6,58H23.87a2,2,0,0,0,0,4h25.8a2,2,0,0,0,2-2,34.49,34.49,0,0,0-2.09-11.76A2,2,0,0,0,49.35,47.6Z"/></g></svg>